<svg width="25" height="25" viewBox="0 0 25 25" fill="none" xmlns="http://www.w3.org/2000/svg">
<path d="M21.3401 5.10987C20.8294 4.59888 20.2229 4.19352 19.5555 3.91696C18.888 3.64039 18.1726 3.49805 17.4501 3.49805C16.7276 3.49805 16.0122 3.64039 15.3448 3.91696C14.6773 4.19352 14.0709 4.59888 13.5601 5.10987L12.5001 6.16987L11.4401 5.10987C10.4084 4.07818 9.00915 3.49858 7.55012 3.49858C6.09109 3.49858 4.69181 4.07818 3.66012 5.10987C2.62843 6.14156 2.04883 7.54084 2.04883 8.99987C2.04883 10.4589 2.62843 11.8582 3.66012 12.8899L4.72012 13.9499L12.5001 21.7299L20.2801 13.9499L21.3401 12.8899C21.8511 12.3791 22.2565 11.7727 22.533 11.1052C22.8096 10.4378 22.9519 9.72236 22.9519 8.99987C22.9519 8.27738 22.8096 7.56198 22.533 6.89452C22.2565 6.22706 21.8511 5.62063 21.3401 5.10987V5.10987Z" stroke="#131728" stroke-linecap="round" stroke-linejoin="round"/>
</svg>
