<svg width="36" height="36" viewBox="0 0 36 36" fill="none" xmlns="http://www.w3.org/2000/svg">
<path d="M18 1.875C26.895 1.875 34.125 9.105 34.125 18C34.125 26.895 26.895 34.125 18 34.125C9.105 34.125 1.875 26.895 1.875 18C1.875 9.105 9.105 1.875 18 1.875ZM18 31.875C25.65 31.875 31.875 25.65 31.875 18C31.875 10.35 25.65 4.125 18 4.125C10.35 4.125 4.125 10.35 4.125 18C4.125 25.65 10.35 31.875 18 31.875Z" fill="#7C99A9"/>
<path d="M14.25 16.875H23.25C23.865 16.875 24.375 17.385 24.375 18C24.375 18.615 23.865 19.125 23.25 19.125H14.25C13.635 19.125 13.125 18.615 13.125 18C13.125 17.385 13.635 16.875 14.25 16.875Z" fill="#7C99A9"/>
<path d="M17.2498 12.3748C17.5348 12.3748 17.8198 12.4798 18.0448 12.7048C18.4798 13.1398 18.4798 13.8598 18.0448 14.2948L14.3398 17.9998L18.0448 21.7048C18.4798 22.1398 18.4798 22.8598 18.0448 23.2948C17.6098 23.7298 16.8898 23.7298 16.4548 23.2948L11.9548 18.7948C11.5198 18.3598 11.5198 17.6398 11.9548 17.2048L16.4548 12.7048C16.6798 12.4798 16.9648 12.3748 17.2498 12.3748Z" fill="#7C99A9"/>
</svg>
