<svg width="36" height="36" viewBox="0 0 36 36" fill="none" xmlns="http://www.w3.org/2000/svg">
<path d="M18 34.125C9.105 34.125 1.875 26.895 1.875 18C1.875 9.105 9.105 1.875 18 1.875C26.895 1.875 34.125 9.105 34.125 18C34.125 26.895 26.895 34.125 18 34.125ZM18 4.125C10.35 4.125 4.125 10.35 4.125 18C4.125 25.65 10.35 31.875 18 31.875C25.65 31.875 31.875 25.65 31.875 18C31.875 10.35 25.65 4.125 18 4.125Z" fill="#7C99A9"/>
<path d="M21.75 19.125H12.75C12.135 19.125 11.625 18.615 11.625 18C11.625 17.385 12.135 16.875 12.75 16.875H21.75C22.365 16.875 22.875 17.385 22.875 18C22.875 18.615 22.365 19.125 21.75 19.125Z" fill="#7C99A9"/>
<path d="M18.7502 23.6252C18.4652 23.6252 18.1802 23.5202 17.9552 23.2952C17.5202 22.8602 17.5202 22.1402 17.9552 21.7052L21.6602 18.0002L17.9552 14.2952C17.5202 13.8602 17.5202 13.1402 17.9552 12.7052C18.3902 12.2702 19.1102 12.2702 19.5452 12.7052L24.0452 17.2052C24.4802 17.6402 24.4802 18.3602 24.0452 18.7952L19.5452 23.2952C19.3202 23.5202 19.0352 23.6252 18.7502 23.6252Z" fill="#7C99A9"/>
</svg>
